<svg version="1.1" xmlns="http://www.w3.org/2000/svg" xmlns:xlink="http://www.w3.org/1999/xlink" x="0px" y="0px" viewBox="0 0 414 162" xml:space="preserve"><symbol id="USEDATA_Symbol" viewBox="-73.3 -58.9 146.7 117.9"><path d="M42.3-28.1C31.5-44.6 12-54.8-9.2-54.8c-33.1 0-60 24.5-60 54.8 0 30.2 26.9 54.8 60 54.8 33.1 0 60-24.5 60-54.8 0-2.8-0.2-5.6-0.7-8.4l14.8-16L42.3-28.1 42.3-28.1z" style="fill:#FFF;stroke-width:8.3661;stroke:#B8CDEC"/><text transform="matrix(0.9922 0 0 -1 -29.9434 14.5156)" style="fill:#010202;font-family:'Calibri';font-size:16.314"/><line x1="16.1" y1="20.3" x2="27.6" y2="21.1" style="fill:none;stroke-linejoin:round;stroke-width:3.3465;stroke:#B8CDEC"/><line x1="13.2" y1="30.2" x2="19" y2="8" style="fill:none;stroke-linejoin:round;stroke-width:5.0197;stroke:#144488"/><line x1="-41.6" y1="20.2" x2="-55.2" y2="29.3" style="fill:none;stroke-linejoin:round;stroke-width:2.5098;stroke:#B8CDEC"/><path d="M-36.9 12.1c-1.9 0-3.5 3.2-3.5 7.1 0 3.9 1.6 7.1 3.5 7.1l0 7.1c-3.9 0-7.1-6.4-7.1-14.2C-44 11.4-40.8 5-36.9 5V12.1z" fill="#144488"/><path d="M-36.9 12.1c-1.9 0-3.5 3.2-3.5 7.1 0 3.9 1.6 7.1 3.5 7.1l0 7.1c-3.9 0-7.1-6.4-7.1-14.2C-44 11.4-40.8 5-36.9 5V12.1z" style="fill:none;stroke-width:3.3202;stroke:#144488"/><line x1="-14.8" y1="27.5" x2="-16.1" y2="33.4" style="fill:none;stroke-linejoin:round;stroke-width:3.3465;stroke:#B8CDEC"/><line x1="29.8" y1="-23.5" x2="40.6" y2="-30.9" style="fill:none;stroke-linejoin:round;stroke-width:3.3465;stroke:#B8CDEC"/><line x1="2.6" y1="-25.5" x2="22" y2="-46.4" style="fill:none;stroke-linejoin:round;stroke-width:2.5098;stroke:#B8CDEC"/><line x1="-26" y1="24.9" x2="-33.4" y2="49.3" style="fill:none;stroke-linejoin:round;stroke-width:2.5098;stroke:#B8CDEC"/><line x1="14.4" y1="27.4" x2="24.3" y2="41.3" style="fill:none;stroke-linejoin:round;stroke-width:2.5098;stroke:#B8CDEC"/><line x1="15.3" y1="30.6" x2="-41.7" y2="19.2" style="fill:none;stroke-linejoin:round;stroke-width:11.7126;stroke:#144488"/><line x1="-16.3" y1="23.2" x2="-29.8" y2="-23.4" style="fill:none;stroke-linejoin:round;stroke-width:8.3661;stroke:#144488"/><line x1="-14.8" y1="23" x2="1.4" y2="-22.4" style="fill:none;stroke-linejoin:round;stroke-width:8.3661;stroke:#144488"/><line x1="-14.5" y1="21.1" x2="-14.6" y2="-22.1" style="fill:none;stroke-linejoin:round;stroke-width:5.0197;stroke:#144488"/><line x1="-37.1" y1="9.4" x2="-36.2" y2="-22.5" style="fill:none;stroke-linejoin:round;stroke-width:3.3465;stroke:#144488"/><line x1="9.1" y1="0.2" x2="8.6" y2="-17.7" style="fill:none;stroke-linejoin:round;stroke-width:11.7126;stroke:#144488"/><line x1="22.1" y1="-3.5" x2="11.5" y2="-10.1" style="fill:none;stroke-linejoin:round;stroke-width:8.3661;stroke:#144488"/><path d="M17.8 8.9c1.5 1 5.7-2.4 9.3-7.6 3.7-5.3 5.5-10.4 4-11.4l-2.7-1.9L15.1 7 17.8 8.9 17.8 8.9z" fill="#144488"/><path d="M17.8 8.9c1.5 1 5.7-2.4 9.3-7.6 3.7-5.3 5.5-10.4 4-11.4l-2.7-1.9L15.1 7 17.8 8.9 17.8 8.9z" style="fill:none;stroke-width:3.3377;stroke:#144488"/><line x1="-37.2" y1="-13.6" x2="-37.1" y2="-21.7" style="fill:none;stroke-linejoin:round;stroke-width:8.3661;stroke:#144488"/><line x1="19" y1="-22.7" x2="-45.6" y2="-23.4" style="fill:none;stroke-linejoin:round;stroke-width:11.7126;stroke:#144488"/><line x1="-17.8" y1="33.1" x2="0.1" y2="37.7" style="fill:none;stroke-linejoin:round;stroke-width:2.5098;stroke:#B8CDEC"/><line x1="-67.9" y1="-1" x2="-48.4" y2="-0.4" style="fill:none;stroke-linejoin:round;stroke-width:2.5098;stroke:#B8CDEC"/><line x1="-50.8" y1="-1.6" x2="-52" y2="-32" style="fill:none;stroke-linejoin:round;stroke-width:2.5098;stroke:#B8CDEC"/><line x1="-48.4" y1="-32.8" x2="-30.9" y2="-32.8" style="fill:none;stroke-linejoin:round;stroke-width:3.3465;stroke:#B8CDEC"/><line x1="-33" y1="-47.4" x2="-32.7" y2="-32.8" style="fill:none;stroke-linejoin:round;stroke-width:2.5098;stroke:#B8CDEC"/><path d="M-52 2.3c-2 0-3.6-1.6-3.6-3.6S-54-5-52-5c2 0 3.6 1.6 3.6 3.6S-50 2.3-52 2.3L-52 2.3z" fill="#FFF"/><path d="M-52 2.3c-2 0-3.6-1.6-3.6-3.6S-54-5-52-5c2 0 3.6 1.6 3.6 3.6S-50 2.3-52 2.3L-52 2.3z" style="fill:none;stroke-linejoin:round;stroke-width:2.5098;stroke:#B8CDEC"/><path d="M-48.1-27.5c-2 0-3.6-1.6-3.6-3.6s1.6-3.6 3.6-3.6 3.6 1.6 3.6 3.6S-46.1-27.5-48.1-27.5L-48.1-27.5z" fill="#FFF"/><path d="M-48.1-27.5c-2 0-3.6-1.6-3.6-3.6s1.6-3.6 3.6-3.6 3.6 1.6 3.6 3.6S-46.1-27.5-48.1-27.5L-48.1-27.5z" style="fill:none;stroke-linejoin:round;stroke-width:2.5098;stroke:#B8CDEC"/><line x1="11" y1="-34.3" x2="-31.7" y2="-34.9" style="fill:none;stroke-linejoin:round;stroke-width:2.5098;stroke:#B8CDEC"/><path d="M28.9-17.7c-2 0-3.6-1.6-3.6-3.6s1.6-3.6 3.6-3.6 3.6 1.6 3.6 3.6S30.9-17.7 28.9-17.7L28.9-17.7z" fill="#FFF"/><line x1="33.2" y1="18.5" x2="42.1" y2="-26.5" style="fill:none;stroke-linejoin:round;stroke-width:2.5098;stroke:#B8CDEC"/><path d="M30.6 25c-2 0-3.6-1.6-3.6-3.6s1.6-3.6 3.6-3.6 3.6 1.6 3.6 3.6S32.7 25 30.6 25L30.6 25z" fill="#FFF"/><path d="M30.6 25c-2 0-3.6-1.6-3.6-3.6s1.6-3.6 3.6-3.6 3.6 1.6 3.6 3.6S32.7 25 30.6 25L30.6 25z" style="fill:none;stroke-linejoin:round;stroke-width:2.5098;stroke:#B8CDEC"/><path d="M-1.8 49c-2 0-3.6-1.6-3.6-3.6s1.6-3.6 3.6-3.6 3.6 1.6 3.6 3.6S0.2 49-1.8 49L-1.8 49z" fill="#FFF"/><path d="M-1.8 49c-2 0-3.6-1.6-3.6-3.6s1.6-3.6 3.6-3.6 3.6 1.6 3.6 3.6S0.2 49-1.8 49L-1.8 49z" style="fill:none;stroke-linejoin:round;stroke-width:2.5098;stroke:#B8CDEC"/><line x1="13.1" y1="-38.2" x2="32" y2="-25.8" style="fill:none;stroke-linejoin:round;stroke-width:2.5098;stroke:#B8CDEC"/><line x1="-12.1" y1="-39.1" x2="-12.1" y2="-34.3" style="fill:none;stroke-linejoin:round;stroke-width:3.3465;stroke:#B8CDEC"/><path d="M-12-38.7c-2 0-3.6-1.6-3.6-3.6s1.6-3.6 3.6-3.6 3.6 1.6 3.6 3.6S-10-38.7-12-38.7L-12-38.7z" fill="#FFF"/><path d="M-12-38.7c-2 0-3.6-1.6-3.6-3.6s1.6-3.6 3.6-3.6 3.6 1.6 3.6 3.6S-10-38.7-12-38.7L-12-38.7z" style="fill:none;stroke-linejoin:round;stroke-width:2.5098;stroke:#B8CDEC"/><path d="M-30.9 44c-2 0-3.6-1.6-3.6-3.6 0-2 1.6-3.6 3.6-3.6s3.6 1.6 3.6 3.6C-27.3 42.4-28.9 44-30.9 44L-30.9 44z" fill="#FFF"/><path d="M-30.9 44c-2 0-3.6-1.6-3.6-3.6 0-2 1.6-3.6 3.6-3.6s3.6 1.6 3.6 3.6C-27.3 42.4-28.9 44-30.9 44L-30.9 44z" style="fill:none;stroke-linejoin:round;stroke-width:2.5098;stroke:#B8CDEC"/><line x1="-1.2" y1="37" x2="-2.2" y2="42.5" style="fill:none;stroke-linejoin:round;stroke-width:2.5098;stroke:#B8CDEC"/><path d="M29.1-17.3c-2 0-3.6-1.6-3.6-3.6s1.6-3.6 3.6-3.6 3.6 1.6 3.6 3.6S31.1-17.3 29.1-17.3L29.1-17.3z" fill="#FFF"/><path d="M29.1-17.3c-2 0-3.6-1.6-3.6-3.6s1.6-3.6 3.6-3.6 3.6 1.6 3.6 3.6S31.1-17.3 29.1-17.3L29.1-17.3z" style="fill:none;stroke-linejoin:round;stroke-width:2.5098;stroke:#B8CDEC"/></symbol><g id="Logos"><g id="Kenya"><g id="Text_-_Kenya_2_"><path d="M200.5 47.8v23.6c0 4-1.3 7.1-3.9 9.2 -2.6 2.2-6 3.2-10.3 3.2 -4.2 0-7.6-1.1-10.2-3.2 -2.6-2.2-3.9-5.2-3.9-9.2V47.8h7.1v23.6c0 2.3 0.6 4.1 1.9 5.3s3 1.7 5.1 1.7c2.2 0 3.9-0.6 5.2-1.7 1.3-1.2 1.9-2.9 1.9-5.3V47.8H200.5zM225.6 74c0-1.4-0.5-2.5-1.4-3.3 -1-0.8-2.6-1.6-5.1-2.3 -4.2-1.2-7.4-2.7-9.5-4.3 -2.1-1.7-3.2-4-3.2-6.9 0-2.9 1.2-5.3 3.7-7.1 2.5-1.8 5.6-2.8 9.4-2.8 3.9 0 7 1 9.5 3.1s3.6 4.6 3.5 7.7l0 0.1h-6.9c0-1.6-0.5-3-1.6-4 -1.1-1-2.6-1.5-4.6-1.5 -1.9 0-3.4 0.4-4.4 1.3 -1 0.8-1.5 1.9-1.5 3.2 0 1.2 0.6 2.2 1.7 3 1.1 0.8 3 1.6 5.7 2.5 3.9 1.1 6.8 2.5 8.8 4.3 2 1.8 3 4.1 3 7.1 0 3-1.2 5.4-3.6 7.2 -2.4 1.8-5.5 2.6-9.4 2.6 -3.8 0-7.2-1-10.1-3 -2.9-2-4.2-4.8-4.2-8.4l0-0.1h6.9c0 2.1 0.6 3.7 1.9 4.7 1.3 1 3.1 1.5 5.4 1.5 1.9 0 3.4-0.4 4.4-1.2C225.1 76.4 225.6 75.4 225.6 74zM259.4 67.7h-14.6v10.1h17.1v5.5h-24.2V47.8h24.1v5.5h-17v8.9h14.6V67.7zM266.5 83.3V47.8h12.1c4.3 0 7.9 1.4 10.7 4.2 2.8 2.8 4.2 6.3 4.2 10.7v5.9c0 4.4-1.4 7.9-4.2 10.7 -2.8 2.8-6.3 4.1-10.7 4.1H266.5zM273.5 53.3v24.6h4.7c2.5 0 4.5-0.9 6-2.6s2.2-4 2.2-6.8v-5.9c0-2.7-0.7-5-2.2-6.7 -1.4-1.7-3.4-2.6-6-2.6H273.5zM316.5 75.7h-12.4l-2.4 7.7h-7.1l12.1-35.5h7.2l12.1 35.5h-7.1L316.5 75.7zM305.9 70.1h8.9l-4.4-14h-0.1L305.9 70.1zM351.2 53.3h-10v30.1h-7.1V53.3h-9.9v-5.5h27V53.3zM372 75.7h-12.4l-2.4 7.7h-7.1l12.1-35.5h7.2l12.1 35.5h-7.1L372 75.7zM361.4 70.1h8.9l-4.4-14h-0.1L361.4 70.1z" fill="#144488"/><path d="M308.8 104.1h-2.4v9.2h-3.5V92h3.5v9h2l6.6-9h4.2l-7.7 10.2 8.3 11.1h-4.3L308.8 104.1zM328.3 113.6c-2.2 0-4-0.7-5.3-2.2s-2-3.4-2-5.7v-0.6c0-2.3 0.7-4.2 2-5.7 1.3-1.5 3-2.3 4.9-2.3 2.1 0 3.7 0.6 4.9 1.9 1.1 1.3 1.7 3 1.7 5.2v2.1h-9.8l0 0.1c0.1 1.3 0.4 2.3 1.1 3.1 0.7 0.8 1.6 1.2 2.8 1.2 0.9 0 1.8-0.1 2.4-0.4 0.7-0.2 1.3-0.6 2-1l1.1 2.3c-0.6 0.5-1.4 1-2.4 1.3C330.7 113.4 329.6 113.6 328.3 113.6zM327.9 100c-0.9 0-1.6 0.3-2.2 1s-0.9 1.6-1 2.7l0 0.1h6.2v-0.4c0-1-0.3-1.8-0.8-2.5C329.7 100.4 328.9 100 327.9 100zM340.5 97.5l0.2 2.3c0.5-0.8 1.2-1.4 1.9-1.9 0.8-0.5 1.7-0.7 2.6-0.7 1.6 0 2.9 0.5 3.8 1.5 0.9 1 1.4 2.6 1.4 4.7v10h-3.5v-9.9c0-1.2-0.2-2-0.7-2.5 -0.5-0.5-1.2-0.8-2.2-0.8 -0.7 0-1.3 0.2-1.8 0.5 -0.5 0.3-1 0.7-1.3 1.3v11.5h-3.5V97.5H340.5zM359.4 107l0.3 1.6h0.1l3.4-11.1h3.9l-6.5 18.3c-0.4 1.1-1 2-1.8 2.8s-1.8 1.2-3.2 1.2c-0.3 0-0.6 0-0.9-0.1s-0.7-0.1-1-0.2l0.4-2.8c0.1 0 0.3 0 0.5 0s0.4 0 0.5 0c0.6 0 1.2-0.2 1.5-0.7s0.7-0.9 0.9-1.5l0.6-1.4 -5.7-15.7h3.9L359.4 107zM378.7 113.3c-0.1-0.4-0.2-0.8-0.3-1.2 -0.1-0.4-0.1-0.8-0.2-1.1 -0.5 0.7-1.1 1.4-1.9 1.9 -0.8 0.5-1.7 0.8-2.7 0.8 -1.6 0-2.9-0.4-3.8-1.3s-1.3-2-1.3-3.5c0-1.5 0.6-2.7 1.8-3.6s2.9-1.3 5.1-1.3h2.7v-1.4c0-0.8-0.2-1.5-0.7-1.9s-1.2-0.7-2.1-0.7c-0.8 0-1.4 0.2-1.9 0.6 -0.5 0.4-0.7 0.9-0.7 1.5h-3.4l0-0.1c-0.1-1.3 0.5-2.4 1.7-3.3s2.7-1.5 4.6-1.5c1.8 0 3.3 0.5 4.4 1.4 1.1 0.9 1.7 2.3 1.7 4v7c0 0.7 0 1.3 0.1 1.9 0.1 0.6 0.2 1.2 0.4 1.8H378.7zM374.4 110.8c0.9 0 1.7-0.2 2.4-0.7 0.7-0.4 1.2-1 1.4-1.5v-2.3h-2.8c-1 0-1.8 0.3-2.4 0.8 -0.6 0.5-0.9 1.1-0.9 1.8 0 0.6 0.2 1.1 0.6 1.4C373.1 110.6 373.6 110.8 374.4 110.8z" fill="#B8CDEC"/></g><use xlink:href="#USEDATA_Symbol" width="146.7" height="117.9" x="-73.3" y="-58.9" transform="matrix(1 0 0 -1 106.2613 81.7607)"/></g></g><g id="Guides"/></svg>